Normalized EMG Linear Envelopes
nRows=200
nColumns=4

endheader
time	 med_gas_r	  soleus_r	 tib_ant_r	
4.3246	  0.012623	  0.026336	  0.001457	
4.35786	  0.012560	  0.027533	  0.001617	
4.39113	  0.012447	  0.028662	  0.001805	
4.4244	  0.012249	  0.029677	  0.002013	
4.45766	  0.011987	  0.030504	  0.002222	
4.49093	  0.011726	  0.031071	  0.002407	
4.52419	  0.011531	  0.031352	  0.002525	
4.55746	  0.011432	  0.031395	  0.002518	
4.59073	  0.011418	  0.031285	  0.002296	
4.62399	  0.011464	  0.031066	  0.001749	
4.65726	  0.011568	  0.030683	  0.000756	
4.69052	  0.011741	  0.029994	 -0.000803	
4.72379	  0.011958	  0.028834	 -0.003015	
4.75706	  0.012127	  0.027093	 -0.005901	
4.79032	  0.012112	  0.024750	 -0.009329	
4.82359	  0.011819	  0.021907	 -0.012889	
4.85685	  0.011268	  0.018839	 -0.015773	
4.89012	  0.010595	  0.016062	 -0.016719	
4.92339	  0.009989	  0.014372	 -0.014012	
4.95665	  0.009635	  0.014822	 -0.005474	
4.98992	  0.009701	  0.018665	  0.011576	
5.02319	  0.010345	  0.027311	  0.040108	
5.05645	  0.011723	  0.042303	  0.082587	
5.08972	  0.013949	  0.065162	  0.139618	
5.12298	  0.017032	  0.096895	  0.208788	
5.15625	  0.020827	  0.137134	  0.284758	
5.18952	  0.025065	  0.183284	  0.360863	
5.22278	  0.029433	  0.230399	  0.431245	
5.25605	  0.033650	  0.272325	  0.492141	
5.28931	  0.037508	  0.303797	  0.541887	
5.32258	  0.040837	  0.322382	  0.580378	
5.35585	  0.043474	  0.329075	  0.608807	
5.38911	  0.045258	  0.327278	  0.629574	
5.42238	  0.046080	  0.320980	  0.645761	
5.45565	  0.045956	  0.313240	  0.660045	
5.48891	  0.045055	  0.305603	  0.673696	
5.52218	  0.043643	  0.298330	  0.686435	
5.55544	  0.042002	  0.291007	  0.697254	
5.58871	  0.040367	  0.283195	  0.705543	
5.62198	  0.038924	  0.274875	  0.711722	
5.65524	  0.037834	  0.266511	  0.717006	
5.68851	  0.037221	  0.258647	  0.722517	
5.72177	  0.037148	  0.251378	  0.728317	
5.75504	  0.037571	  0.244333	  0.733043	
5.78831	  0.038338	  0.237316	  0.734553	
5.82157	  0.039228	  0.231012	  0.731350	
5.85484	  0.040033	  0.226934	  0.723765	
5.8881	  0.040625	  0.226507	  0.713875	
5.92137	  0.040955	  0.230010	  0.704167	
5.95464	  0.040999	  0.236172	  0.696182	
5.9879	  0.040706	  0.242669	  0.690231	
6.02117	  0.040020	  0.247104	  0.685973	
6.05444	  0.038957	  0.247932	  0.682739	
6.0877	  0.037652	  0.244968	  0.679186	
6.12097	  0.036330	  0.239368	  0.673090	
6.15423	  0.035209	  0.233090	  0.662187	
6.1875	  0.034413	  0.228048	  0.645614	
6.22077	  0.033941	  0.225272	  0.624539	
6.25403	  0.033690	  0.224438	  0.601309	
6.2873	  0.033548	  0.224087	  0.578054	
6.32056	  0.033482	  0.222512	  0.556189	
6.35383	  0.033578	  0.218851	  0.537081	
6.3871	  0.033980	  0.213700	  0.522801	
6.42036	  0.034763	  0.208858	  0.515910	
6.45363	  0.035861	  0.206542	  0.518303	
6.4869	  0.037099	  0.208637	  0.530144	
6.52016	  0.038323	  0.216284	  0.549794	
6.55343	  0.039499	  0.229620	  0.574667	
6.58669	  0.040692	  0.247567	  0.602139	
6.61996	  0.041943	  0.267817	  0.629883	
6.65323	  0.043166	  0.287289	  0.655835	
6.68649	  0.044158	  0.302990	  0.678278	
6.71976	  0.044732	  0.312790	  0.696070	
6.75302	  0.044863	  0.315632	  0.708651	
6.78629	  0.044708	  0.311271	  0.715738	
6.81956	  0.044514	  0.300088	  0.717216	
6.85282	  0.044492	  0.283273	  0.713521	
6.88609	  0.044764	  0.263053	  0.706169	
6.91935	  0.045384	  0.242404	  0.697633	
6.95262	  0.046355	  0.224239	  0.690367	
6.98589	  0.047586	  0.210615	  0.685725	
7.01915	  0.048852	  0.202527	  0.683736	
7.05242	  0.049837	  0.200244	  0.683834	
7.08569	  0.050261	  0.203688	  0.685676	
7.11895	  0.050005	  0.212452	  0.689193	
7.15222	  0.049159	  0.225621	  0.693965	
7.18548	  0.047953	  0.241837	  0.698881	
7.21875	  0.046653	  0.259778	  0.702751	
7.25202	  0.045465	  0.278621	  0.705366	
7.28528	  0.044502	  0.297904	  0.707757	
7.31855	  0.043779	  0.316791	  0.711081	
7.35181	  0.043245	  0.333482	  0.715032	
7.38508	  0.042793	  0.345474	  0.717348	
7.41835	  0.042291	  0.350706	  0.715068	
7.45161	  0.041639	  0.348868	  0.706561	
7.48488	  0.040825	  0.341980	  0.692743	
7.51815	  0.039935	  0.333801	  0.676632	
7.55141	  0.039104	  0.328294	  0.661759	
7.58468	  0.038431	  0.327929	  0.650590	
7.61794	  0.037928	  0.332764	  0.643882	
7.65121	  0.037530	  0.340867	  0.641071	
7.68448	  0.037162	  0.349748	  0.641192	
7.71774	  0.036796	  0.357766	  0.643683	
7.75101	  0.036467	  0.364447	  0.648622	
7.78427	  0.036218	  0.369627	  0.656287	
7.81754	  0.036052	  0.372314	  0.666319	
7.85081	  0.035916	  0.370410	  0.677105	
7.88407	  0.035741	  0.361689	  0.685886	
7.91734	  0.035478	  0.345358	  0.689635	
7.9506	  0.035103	  0.322937	  0.686202	
7.98387	  0.034591	  0.297627	  0.675034	
8.01714	  0.033930	  0.272559	  0.657082	
8.0504	  0.033157	  0.249355	  0.634046	
8.08367	  0.032404	  0.228209	  0.607601	
8.11694	  0.031868	  0.209246	  0.579195	
8.1502	  0.031733	  0.193624	  0.550556	
8.18347	  0.032092	  0.183152	  0.524416	
8.21673	  0.032921	  0.178815	  0.504636	
8.25	  0.034100	  0.179748	  0.495254	
8.28327	  0.035447	  0.183763	  0.498841	
8.31653	  0.036749	  0.188915	  0.515304	
8.3498	  0.037799	  0.194658	  0.542078	
8.38306	  0.038471	  0.201663	  0.575476	
8.41633	  0.038759	  0.210750	  0.612037	
8.4496	  0.038741	  0.222059	  0.648805	
8.48286	  0.038503	  0.235027	  0.682659	
8.51613	  0.038086	  0.248726	  0.709771	
8.5494	  0.037515	  0.262025	  0.726138	
8.58266	  0.036889	  0.273565	  0.729143	
8.61593	  0.036402	  0.281918	  0.719051	
8.64919	  0.036277	  0.285972	  0.699212	
8.68246	  0.036624	  0.285212	  0.674633	
8.71573	  0.037353	  0.279749	  0.649854	
8.74899	  0.038214	  0.270267	  0.627646	
8.78226	  0.038927	  0.258046	  0.609249	
8.81552	  0.039313	  0.244885	  0.595463	
8.84879	  0.039328	  0.232638	  0.587228	
8.88206	  0.039026	  0.222546	  0.585055	
8.91532	  0.038501	  0.214943	  0.587993	
8.94859	  0.037844	  0.209715	  0.593298	
8.98185	  0.037110	  0.207071	  0.597390	
9.01512	  0.036305	  0.207751	  0.597486	
9.04839	  0.035400	  0.212297	  0.592766	
9.08165	  0.034380	  0.220047	  0.584401	
9.11492	  0.033302	  0.228930	  0.574622	
9.14819	  0.032294	  0.236396	  0.565568	
9.18145	  0.031494	  0.240859	  0.558572	
9.21472	  0.030970	  0.242692	  0.554101	
9.24798	  0.030688	  0.244299	  0.552099	
9.28125	  0.030552	  0.249350	  0.552256	
9.31452	  0.030480	  0.261490	  0.553945	
9.34778	  0.030453	  0.282916	  0.556044	
9.38105	  0.030506	  0.313296	  0.556964	
9.41431	  0.030670	  0.349524	  0.554908	
9.44758	  0.030921	  0.386425	  0.548118	
9.48085	  0.031170	  0.418064	  0.535019	
9.51411	  0.031293	  0.439035	  0.514592	
9.54738	  0.031169	  0.445410	  0.487115	
9.58065	  0.030699	  0.435339	  0.454768	
9.61391	  0.029832	  0.409318	  0.421265	
9.64718	  0.028600	  0.370016	  0.390385	
9.68044	  0.027143	  0.321626	  0.364266	
9.71371	  0.025661	  0.269020	  0.342725	
9.74698	  0.024319	  0.217011	  0.324087	
9.78024	  0.023174	  0.169835	  0.306869	
9.81351	  0.022183	  0.130717	  0.290978	
9.84677	  0.021289	  0.101464	  0.277576	
9.88004	  0.020474	  0.082255	  0.267836	
9.91331	  0.019747	  0.071817	  0.261724	
9.94657	  0.019096	  0.067983	  0.257757	
9.97984	  0.018464	  0.068374	  0.253775	
10.0131	  0.017784	  0.070885	  0.247983	
10.0464	  0.017023	  0.073875	  0.239521	
10.0796	  0.016197	  0.076158	  0.228467	
10.1129	  0.015353	  0.076993	  0.215561	
10.1462	  0.014555	  0.076115	  0.201901	
10.1794	  0.013868	  0.073705	  0.188625	
10.2127	  0.013344	  0.070236	  0.176584	
10.246	  0.013005	  0.066279	  0.166115	
10.2792	  0.012821	  0.062363	  0.157076	
10.3125	  0.012728	  0.058905	  0.149148	
10.3458	  0.012661	  0.056158	  0.142213	
10.379	  0.012593	  0.054175	  0.136488	
10.4123	  0.012548	  0.052852	  0.132336	
10.4456	  0.012565	  0.052048	  0.129975	
10.4788	  0.012662	  0.051705	  0.129312	
10.5121	  0.012803	  0.051870	  0.129955	
10.5454	  0.012921	  0.052584	  0.131283	
10.5786	  0.012949	  0.053728	  0.132517	
10.6119	  0.012855	  0.054979	  0.132864	
10.6452	  0.012659	  0.055942	  0.131726	
10.6784	  0.012420	  0.056354	  0.128856	
10.7117	  0.012217	  0.056199	  0.124338	
10.745	  0.012130	  0.055630	  0.118380	
10.7782	  0.012217	  0.054771	  0.111105	
10.8115	  0.012503	  0.053581	  0.102531	
10.8448	  0.012965	  0.051891	  0.092750	
10.878	  0.013540	  0.049578	  0.082093	
10.9113	  0.014153	  0.046705	  0.071111	
10.9446	  0.014752	  0.043549	  0.060422	
